<mxfile host="app.diagrams.net" agent="Mozilla/5.0 (Windows NT 10.0; Win64; x64) AppleWebKit/537.36 (KHTML, like Gecko) Chrome/133.0.0.0 Safari/537.36" version="26.0.16">
  <diagram id="GNU3i8hCxYjH3E0Nk9u4" name="Page-1">
    <mxGraphModel grid="1" page="1" gridSize="10" guides="1" tooltips="1" connect="1" arrows="1" fold="1" pageScale="1" pageWidth="850" pageHeight="1100" math="0" shadow="0">
      <root>
        <mxCell id="0" />
        <mxCell id="1" parent="0" />
        <mxCell id="FXCXVvDxTQtwc45PbP1s-120" style="edgeStyle=orthogonalEdgeStyle;rounded=0;orthogonalLoop=1;jettySize=auto;html=1;startArrow=block;startFill=1;endArrow=block;endFill=1;" edge="1" parent="1" source="FXCXVvDxTQtwc45PbP1s-93" target="FXCXVvDxTQtwc45PbP1s-94">
          <mxGeometry relative="1" as="geometry" />
        </mxCell>
        <mxCell id="FXCXVvDxTQtwc45PbP1s-161" value="ymontagnier-vpc" style="swimlane;fontStyle=0;horizontal=1;collapsible=0;startSize=28;swimlaneLine=0;swimlaneFillColor=none;fillColor=none;rounded=0;whiteSpace=wrap;html=1;absoluteArcSize=1;arcSize=12;strokeColor=#417CB9;verticalAlign=top;align=left;spacingLeft=30;spacingTop=1;dashed=0;strokeWidth=1;" vertex="1" parent="1">
          <mxGeometry x="240" y="40" width="1100" height="880" as="geometry" />
        </mxCell>
        <mxCell id="FXCXVvDxTQtwc45PbP1s-162" value="" style="aspect=fixed;perimeter=ellipsePerimeter;html=1;align=center;shadow=0;dashed=0;fontColor=#4277BB;labelBackgroundColor=#ffffff;fontSize=12;spacingTop=3;image;image=img/lib/ibm/vpc/VPCTag.svg;part=1;" vertex="1" parent="FXCXVvDxTQtwc45PbP1s-161">
          <mxGeometry width="30" height="30" as="geometry" />
        </mxCell>
        <mxCell id="FXCXVvDxTQtwc45PbP1s-163" value="Region eu-north-01" style="swimlane;fontStyle=0;horizontal=1;collapsible=0;startSize=28;swimlaneLine=0;swimlaneFillColor=none;fillColor=none;rounded=0;whiteSpace=wrap;html=1;absoluteArcSize=1;arcSize=0;strokeColor=#00882B;verticalAlign=top;align=left;spacingLeft=30;dashed=1;strokeWidth=1;container=1;dashPattern=1 1;" vertex="1" parent="1">
          <mxGeometry x="253.5" y="80" width="1070" height="829.5" as="geometry" />
        </mxCell>
        <mxCell id="FXCXVvDxTQtwc45PbP1s-164" value="" style="aspect=fixed;perimeter=ellipsePerimeter;html=1;align=center;shadow=0;dashed=0;fontColor=#4277BB;labelBackgroundColor=#ffffff;fontSize=12;spacingTop=3;image;image=img/lib/ibm/vpc/RegionTag.svg;part=1;" vertex="1" parent="FXCXVvDxTQtwc45PbP1s-163">
          <mxGeometry width="30" height="30" as="geometry" />
        </mxCell>
        <mxCell id="FXCXVvDxTQtwc45PbP1s-149" value="Subnet 10.100.1.0/24&amp;nbsp;- Public" style="swimlane;fontStyle=0;horizontal=1;collapsible=0;startSize=28;swimlaneLine=0;swimlaneFillColor=none;fillColor=none;rounded=0;whiteSpace=wrap;html=1;absoluteArcSize=1;arcSize=12;strokeColor=#2A8838;verticalAlign=top;align=left;spacingLeft=30;spacingTop=1;dashed=0;strokeWidth=1;" vertex="1" parent="FXCXVvDxTQtwc45PbP1s-163">
          <mxGeometry x="106.5" y="100.5" width="260" height="229.5" as="geometry" />
        </mxCell>
        <mxCell id="FXCXVvDxTQtwc45PbP1s-150" value="" style="aspect=fixed;perimeter=ellipsePerimeter;html=1;align=center;shadow=0;dashed=0;fontColor=#4277BB;labelBackgroundColor=#ffffff;fontSize=12;spacingTop=3;image;image=img/lib/ibm/vpc/SubnetTag.svg;part=1;" vertex="1" parent="FXCXVvDxTQtwc45PbP1s-149">
          <mxGeometry width="30" height="40" as="geometry" />
        </mxCell>
        <mxCell id="ur3kafw1qKhpfOSSZFUt-24" value="ymontagnier-bastion" style="outlineConnect=0;dashed=0;verticalLabelPosition=bottom;verticalAlign=top;align=center;html=1;shape=mxgraph.aws3.ec2;fillColor=#F58534;gradientColor=none;" vertex="1" parent="FXCXVvDxTQtwc45PbP1s-149">
          <mxGeometry x="91.75" y="68.25" width="76.5" height="93" as="geometry" />
        </mxCell>
        <mxCell id="ur3kafw1qKhpfOSSZFUt-4" value="Subnet 10.100.2.0/24&amp;nbsp;- Public" style="swimlane;fontStyle=0;horizontal=1;collapsible=0;startSize=28;swimlaneLine=0;swimlaneFillColor=none;fillColor=none;rounded=0;whiteSpace=wrap;html=1;absoluteArcSize=1;arcSize=12;strokeColor=#2A8838;verticalAlign=top;align=left;spacingLeft=30;spacingTop=1;dashed=0;strokeWidth=1;" vertex="1" parent="FXCXVvDxTQtwc45PbP1s-163">
          <mxGeometry x="416.5" y="100.5" width="260" height="229.5" as="geometry" />
        </mxCell>
        <mxCell id="ur3kafw1qKhpfOSSZFUt-5" value="" style="aspect=fixed;perimeter=ellipsePerimeter;html=1;align=center;shadow=0;dashed=0;fontColor=#4277BB;labelBackgroundColor=#ffffff;fontSize=12;spacingTop=3;image;image=img/lib/ibm/vpc/SubnetTag.svg;part=1;" vertex="1" parent="ur3kafw1qKhpfOSSZFUt-4">
          <mxGeometry width="30" height="40" as="geometry" />
        </mxCell>
        <mxCell id="ur3kafw1qKhpfOSSZFUt-8" value="Subnet 10.100.3.0/24&amp;nbsp;- Public" style="swimlane;fontStyle=0;horizontal=1;collapsible=0;startSize=28;swimlaneLine=0;swimlaneFillColor=none;fillColor=none;rounded=0;whiteSpace=wrap;html=1;absoluteArcSize=1;arcSize=12;strokeColor=#2A8838;verticalAlign=top;align=left;spacingLeft=30;spacingTop=1;dashed=0;strokeWidth=1;" vertex="1" parent="FXCXVvDxTQtwc45PbP1s-163">
          <mxGeometry x="726.5" y="100.5" width="260" height="229.5" as="geometry" />
        </mxCell>
        <mxCell id="ur3kafw1qKhpfOSSZFUt-9" value="" style="aspect=fixed;perimeter=ellipsePerimeter;html=1;align=center;shadow=0;dashed=0;fontColor=#4277BB;labelBackgroundColor=#ffffff;fontSize=12;spacingTop=3;image;image=img/lib/ibm/vpc/SubnetTag.svg;part=1;" vertex="1" parent="ur3kafw1qKhpfOSSZFUt-8">
          <mxGeometry width="30" height="40" as="geometry" />
        </mxCell>
        <mxCell id="itqwBwdQcHr9N_OGk8uq-19" value="&lt;div&gt;&lt;br&gt;&lt;/div&gt;&lt;div&gt;&lt;br&gt;&lt;/div&gt;&lt;div&gt;&lt;br&gt;&lt;/div&gt;&lt;div&gt;&lt;br&gt;&lt;/div&gt;&lt;div&gt;&lt;br&gt;&lt;/div&gt;&lt;div&gt;&lt;br&gt;&lt;/div&gt;&lt;div&gt;&lt;br&gt;&lt;/div&gt;&lt;div&gt;ymontagnier-alb&lt;/div&gt;" style="points=[];aspect=fixed;html=1;align=center;shadow=0;dashed=0;fillColor=#FF6A00;strokeColor=none;shape=mxgraph.alibaba_cloud.alb_application_load_balancer_02;" vertex="1" parent="ur3kafw1qKhpfOSSZFUt-8">
          <mxGeometry x="100" y="91.19999999999999" width="60" height="60" as="geometry" />
        </mxCell>
        <mxCell id="ur3kafw1qKhpfOSSZFUt-15" value="Subnet 10.100.4.0/24&amp;nbsp;- Private" style="swimlane;fontStyle=0;horizontal=1;collapsible=0;startSize=28;swimlaneLine=0;swimlaneFillColor=none;fillColor=none;rounded=0;whiteSpace=wrap;html=1;absoluteArcSize=1;arcSize=12;strokeColor=#2A8838;verticalAlign=top;align=left;spacingLeft=30;spacingTop=1;dashed=0;strokeWidth=1;" vertex="1" parent="FXCXVvDxTQtwc45PbP1s-163">
          <mxGeometry x="95" y="530" width="260" height="229.5" as="geometry" />
        </mxCell>
        <mxCell id="ur3kafw1qKhpfOSSZFUt-16" value="" style="aspect=fixed;perimeter=ellipsePerimeter;html=1;align=center;shadow=0;dashed=0;fontColor=#4277BB;labelBackgroundColor=#ffffff;fontSize=12;spacingTop=3;image;image=img/lib/ibm/vpc/SubnetTag.svg;part=1;" vertex="1" parent="ur3kafw1qKhpfOSSZFUt-15">
          <mxGeometry width="30" height="40" as="geometry" />
        </mxCell>
        <mxCell id="itqwBwdQcHr9N_OGk8uq-2" value="ymontagnier-rds" style="outlineConnect=0;dashed=0;verticalLabelPosition=bottom;verticalAlign=top;align=center;html=1;shape=mxgraph.aws3.rds_db_instance;fillColor=#2E73B8;gradientColor=none;" vertex="1" parent="ur3kafw1qKhpfOSSZFUt-15">
          <mxGeometry x="105.25" y="140" width="49.5" height="66" as="geometry" />
        </mxCell>
        <mxCell id="ur3kafw1qKhpfOSSZFUt-17" value="Subnet 10.100.5.0/24&amp;nbsp;- Private" style="swimlane;fontStyle=0;horizontal=1;collapsible=0;startSize=28;swimlaneLine=0;swimlaneFillColor=none;fillColor=none;rounded=0;whiteSpace=wrap;html=1;absoluteArcSize=1;arcSize=12;strokeColor=#2A8838;verticalAlign=top;align=left;spacingLeft=30;spacingTop=1;dashed=0;strokeWidth=1;" vertex="1" parent="FXCXVvDxTQtwc45PbP1s-163">
          <mxGeometry x="405" y="530" width="260" height="229.5" as="geometry" />
        </mxCell>
        <mxCell id="ur3kafw1qKhpfOSSZFUt-18" value="" style="aspect=fixed;perimeter=ellipsePerimeter;html=1;align=center;shadow=0;dashed=0;fontColor=#4277BB;labelBackgroundColor=#ffffff;fontSize=12;spacingTop=3;image;image=img/lib/ibm/vpc/SubnetTag.svg;part=1;" vertex="1" parent="ur3kafw1qKhpfOSSZFUt-17">
          <mxGeometry width="30" height="40" as="geometry" />
        </mxCell>
        <mxCell id="itqwBwdQcHr9N_OGk8uq-3" value="ymontagnier-rds" style="outlineConnect=0;dashed=0;verticalLabelPosition=bottom;verticalAlign=top;align=center;html=1;shape=mxgraph.aws3.rds_db_instance_standby_multi_az;fillColor=#2E73B8;gradientColor=none;" vertex="1" parent="ur3kafw1qKhpfOSSZFUt-17">
          <mxGeometry x="105.25" y="140" width="49.5" height="66" as="geometry" />
        </mxCell>
        <mxCell id="ur3kafw1qKhpfOSSZFUt-20" value="Subnet 10.100.6.0/24&amp;nbsp;- Private" style="swimlane;fontStyle=0;horizontal=1;collapsible=0;startSize=28;swimlaneLine=0;swimlaneFillColor=none;fillColor=none;rounded=0;whiteSpace=wrap;html=1;absoluteArcSize=1;arcSize=12;strokeColor=#2A8838;verticalAlign=top;align=left;spacingLeft=30;spacingTop=1;dashed=0;strokeWidth=1;" vertex="1" parent="FXCXVvDxTQtwc45PbP1s-163">
          <mxGeometry x="715" y="530" width="260" height="229.5" as="geometry" />
        </mxCell>
        <mxCell id="ur3kafw1qKhpfOSSZFUt-21" value="" style="aspect=fixed;perimeter=ellipsePerimeter;html=1;align=center;shadow=0;dashed=0;fontColor=#4277BB;labelBackgroundColor=#ffffff;fontSize=12;spacingTop=3;image;image=img/lib/ibm/vpc/SubnetTag.svg;part=1;" vertex="1" parent="ur3kafw1qKhpfOSSZFUt-20">
          <mxGeometry width="30" height="40" as="geometry" />
        </mxCell>
        <mxCell id="itqwBwdQcHr9N_OGk8uq-4" value="ymontagnier-rds" style="outlineConnect=0;dashed=0;verticalLabelPosition=bottom;verticalAlign=top;align=center;html=1;shape=mxgraph.aws3.rds_db_instance_standby_multi_az;fillColor=#2E73B8;gradientColor=none;" vertex="1" parent="ur3kafw1qKhpfOSSZFUt-20">
          <mxGeometry x="116.75" y="140" width="49.5" height="66" as="geometry" />
        </mxCell>
        <mxCell id="ur3kafw1qKhpfOSSZFUt-30" value="&amp;nbsp; &amp;nbsp; &amp;nbsp; &amp;nbsp; &amp;nbsp; &amp;nbsp; Private route table&lt;div&gt;&lt;br&gt;&lt;/div&gt;" style="points=[];aspect=fixed;html=1;align=left;shadow=0;dashed=0;fillColor=#FF6A00;strokeColor=none;shape=mxgraph.alibaba_cloud.route_table;" vertex="1" parent="FXCXVvDxTQtwc45PbP1s-163">
          <mxGeometry x="516.25" y="469.99999999999994" width="37.5" height="47.400000000000006" as="geometry" />
        </mxCell>
        <mxCell id="ur3kafw1qKhpfOSSZFUt-31" style="edgeStyle=orthogonalEdgeStyle;rounded=0;orthogonalLoop=1;jettySize=auto;html=1;entryX=0.04;entryY=0.558;entryDx=0;entryDy=0;entryPerimeter=0;fillColor=#d5e8d4;strokeColor=#82b366;" edge="1" parent="FXCXVvDxTQtwc45PbP1s-163" source="ur3kafw1qKhpfOSSZFUt-15" target="ur3kafw1qKhpfOSSZFUt-30">
          <mxGeometry relative="1" as="geometry">
            <Array as="points">
              <mxPoint x="237" y="496" />
            </Array>
          </mxGeometry>
        </mxCell>
        <mxCell id="ur3kafw1qKhpfOSSZFUt-32" style="edgeStyle=orthogonalEdgeStyle;rounded=0;orthogonalLoop=1;jettySize=auto;html=1;entryX=1.081;entryY=0.598;entryDx=0;entryDy=0;entryPerimeter=0;fillColor=#d5e8d4;strokeColor=#82b366;" edge="1" parent="FXCXVvDxTQtwc45PbP1s-163" source="ur3kafw1qKhpfOSSZFUt-20" target="ur3kafw1qKhpfOSSZFUt-30">
          <mxGeometry relative="1" as="geometry">
            <Array as="points">
              <mxPoint x="857" y="498" />
            </Array>
          </mxGeometry>
        </mxCell>
        <mxCell id="ur3kafw1qKhpfOSSZFUt-34" style="edgeStyle=orthogonalEdgeStyle;rounded=0;orthogonalLoop=1;jettySize=auto;html=1;entryX=0.497;entryY=0.819;entryDx=0;entryDy=0;entryPerimeter=0;fillColor=#d5e8d4;strokeColor=#82b366;" edge="1" parent="FXCXVvDxTQtwc45PbP1s-163" source="ur3kafw1qKhpfOSSZFUt-17" target="ur3kafw1qKhpfOSSZFUt-30">
          <mxGeometry relative="1" as="geometry" />
        </mxCell>
        <mxCell id="itqwBwdQcHr9N_OGk8uq-12" style="edgeStyle=orthogonalEdgeStyle;rounded=0;orthogonalLoop=1;jettySize=auto;html=1;fillColor=#ffe6cc;strokeColor=#d79b00;" edge="1" parent="FXCXVvDxTQtwc45PbP1s-163" source="ur3kafw1qKhpfOSSZFUt-36" target="ur3kafw1qKhpfOSSZFUt-2">
          <mxGeometry relative="1" as="geometry">
            <Array as="points">
              <mxPoint x="427" y="415" />
              <mxPoint x="427" y="415" />
            </Array>
          </mxGeometry>
        </mxCell>
        <mxCell id="ur3kafw1qKhpfOSSZFUt-36" value="&amp;nbsp; &amp;nbsp; &amp;nbsp; &amp;nbsp; &amp;nbsp; &amp;nbsp; Public route table&lt;div&gt;&lt;br&gt;&lt;/div&gt;" style="points=[];aspect=fixed;html=1;align=left;shadow=0;dashed=0;fillColor=#FF6A00;strokeColor=none;shape=mxgraph.alibaba_cloud.route_table;" vertex="1" parent="FXCXVvDxTQtwc45PbP1s-163">
          <mxGeometry x="527.75" y="370" width="37.5" height="47.400000000000006" as="geometry" />
        </mxCell>
        <mxCell id="ur3kafw1qKhpfOSSZFUt-42" style="edgeStyle=orthogonalEdgeStyle;rounded=0;orthogonalLoop=1;jettySize=auto;html=1;fillColor=#d5e8d4;strokeColor=#82b366;entryX=0.98;entryY=0.654;entryDx=0;entryDy=0;entryPerimeter=0;" edge="1" parent="FXCXVvDxTQtwc45PbP1s-163" source="ur3kafw1qKhpfOSSZFUt-8" target="ur3kafw1qKhpfOSSZFUt-36">
          <mxGeometry relative="1" as="geometry">
            <Array as="points">
              <mxPoint x="857" y="400" />
              <mxPoint x="597" y="400" />
              <mxPoint x="597" y="401" />
            </Array>
            <mxPoint x="564.5" y="410" as="targetPoint" />
          </mxGeometry>
        </mxCell>
        <mxCell id="ur3kafw1qKhpfOSSZFUt-27" value="ymontagnier-nextcloud" style="outlineConnect=0;dashed=0;verticalLabelPosition=bottom;verticalAlign=top;align=center;html=1;shape=mxgraph.aws3.ec2;fillColor=#F58534;gradientColor=none;" vertex="1" parent="FXCXVvDxTQtwc45PbP1s-163">
          <mxGeometry x="136.5" y="570" width="50.79" height="61.75" as="geometry" />
        </mxCell>
        <mxCell id="itqwBwdQcHr9N_OGk8uq-1" value="ymontagnier-efs" style="sketch=0;points=[[0,0,0],[0.25,0,0],[0.5,0,0],[0.75,0,0],[1,0,0],[0,1,0],[0.25,1,0],[0.5,1,0],[0.75,1,0],[1,1,0],[0,0.25,0],[0,0.5,0],[0,0.75,0],[1,0.25,0],[1,0.5,0],[1,0.75,0]];outlineConnect=0;fontColor=#232F3E;fillColor=#7AA116;strokeColor=#ffffff;dashed=0;verticalLabelPosition=bottom;verticalAlign=top;align=center;html=1;fontSize=12;fontStyle=0;aspect=fixed;shape=mxgraph.aws4.resourceIcon;resIcon=mxgraph.aws4.efs_standard;" vertex="1" parent="FXCXVvDxTQtwc45PbP1s-163">
          <mxGeometry x="266.5" y="589.75" width="42" height="42" as="geometry" />
        </mxCell>
        <mxCell id="itqwBwdQcHr9N_OGk8uq-5" value="ymontagnier-efs" style="sketch=0;points=[[0,0,0],[0.25,0,0],[0.5,0,0],[0.75,0,0],[1,0,0],[0,1,0],[0.25,1,0],[0.5,1,0],[0.75,1,0],[1,1,0],[0,0.25,0],[0,0.5,0],[0,0.75,0],[1,0.25,0],[1,0.5,0],[1,0.75,0]];outlineConnect=0;fontColor=#232F3E;fillColor=#7AA116;strokeColor=#ffffff;dashed=0;verticalLabelPosition=bottom;verticalAlign=top;align=center;html=1;fontSize=12;fontStyle=0;aspect=fixed;shape=mxgraph.aws4.resourceIcon;resIcon=mxgraph.aws4.efs_standard;" vertex="1" parent="FXCXVvDxTQtwc45PbP1s-163">
          <mxGeometry x="586.5" y="589.75" width="42" height="42" as="geometry" />
        </mxCell>
        <mxCell id="itqwBwdQcHr9N_OGk8uq-6" value="ymontagnier-efs" style="sketch=0;points=[[0,0,0],[0.25,0,0],[0.5,0,0],[0.75,0,0],[1,0,0],[0,1,0],[0.25,1,0],[0.5,1,0],[0.75,1,0],[1,1,0],[0,0.25,0],[0,0.5,0],[0,0.75,0],[1,0.25,0],[1,0.5,0],[1,0.75,0]];outlineConnect=0;fontColor=#232F3E;fillColor=#7AA116;strokeColor=#ffffff;dashed=0;verticalLabelPosition=bottom;verticalAlign=top;align=center;html=1;fontSize=12;fontStyle=0;aspect=fixed;shape=mxgraph.aws4.resourceIcon;resIcon=mxgraph.aws4.efs_standard;" vertex="1" parent="FXCXVvDxTQtwc45PbP1s-163">
          <mxGeometry x="906.5" y="589.75" width="42" height="42" as="geometry" />
        </mxCell>
        <mxCell id="itqwBwdQcHr9N_OGk8uq-7" value="ymontagnier-natgateway&lt;div&gt;&lt;br&gt;&lt;/div&gt;&lt;div&gt;&lt;br&gt;&lt;/div&gt;&lt;div&gt;&lt;br&gt;&lt;/div&gt;&lt;div&gt;&lt;br&gt;&lt;/div&gt;&lt;div&gt;&lt;br&gt;&lt;/div&gt;" style="points=[];aspect=fixed;html=1;align=center;shadow=0;dashed=0;fillColor=#FF6A00;strokeColor=none;shape=mxgraph.alibaba_cloud.nat_gateway;" vertex="1" parent="FXCXVvDxTQtwc45PbP1s-163">
          <mxGeometry x="520.7" y="210" width="51.6" height="41.699999999999996" as="geometry" />
        </mxCell>
        <mxCell id="itqwBwdQcHr9N_OGk8uq-9" style="edgeStyle=orthogonalEdgeStyle;rounded=0;orthogonalLoop=1;jettySize=auto;html=1;exitX=0.5;exitY=0;exitDx=0;exitDy=0;exitPerimeter=0;entryX=0.016;entryY=0.528;entryDx=0;entryDy=0;entryPerimeter=0;fillColor=#f8cecc;strokeColor=#b85450;" edge="1" parent="FXCXVvDxTQtwc45PbP1s-163" source="ur3kafw1qKhpfOSSZFUt-27" target="itqwBwdQcHr9N_OGk8uq-7">
          <mxGeometry relative="1" as="geometry">
            <Array as="points">
              <mxPoint x="162" y="340" />
              <mxPoint x="477" y="340" />
              <mxPoint x="477" y="232" />
            </Array>
          </mxGeometry>
        </mxCell>
        <mxCell id="ur3kafw1qKhpfOSSZFUt-2" value="Internet Gateway" style="outlineConnect=0;dashed=0;verticalLabelPosition=bottom;verticalAlign=top;align=center;html=1;shape=mxgraph.aws3.internet_gateway;fillColor=#F58534;gradientColor=none;" vertex="1" parent="FXCXVvDxTQtwc45PbP1s-163">
          <mxGeometry x="16.5" y="378.75" width="69" height="72" as="geometry" />
        </mxCell>
        <mxCell id="itqwBwdQcHr9N_OGk8uq-13" style="edgeStyle=orthogonalEdgeStyle;rounded=0;orthogonalLoop=1;jettySize=auto;html=1;entryX=0.5;entryY=0;entryDx=0;entryDy=0;entryPerimeter=0;fillColor=#dae8fc;strokeColor=#6c8ebf;" edge="1" parent="FXCXVvDxTQtwc45PbP1s-163" source="itqwBwdQcHr9N_OGk8uq-7" target="ur3kafw1qKhpfOSSZFUt-2">
          <mxGeometry relative="1" as="geometry">
            <Array as="points">
              <mxPoint x="527" y="360" />
              <mxPoint x="51" y="360" />
            </Array>
          </mxGeometry>
        </mxCell>
        <mxCell id="itqwBwdQcHr9N_OGk8uq-16" style="edgeStyle=orthogonalEdgeStyle;rounded=0;orthogonalLoop=1;jettySize=auto;html=1;entryX=0.02;entryY=0.591;entryDx=0;entryDy=0;entryPerimeter=0;fillColor=#d5e8d4;strokeColor=#82b366;" edge="1" parent="FXCXVvDxTQtwc45PbP1s-163" source="FXCXVvDxTQtwc45PbP1s-149" target="ur3kafw1qKhpfOSSZFUt-36">
          <mxGeometry relative="1" as="geometry">
            <Array as="points">
              <mxPoint x="237" y="398" />
            </Array>
          </mxGeometry>
        </mxCell>
        <mxCell id="itqwBwdQcHr9N_OGk8uq-17" style="edgeStyle=orthogonalEdgeStyle;rounded=0;orthogonalLoop=1;jettySize=auto;html=1;entryX=0.5;entryY=0.127;entryDx=0;entryDy=0;entryPerimeter=0;fillColor=#d5e8d4;strokeColor=#82b366;" edge="1" parent="FXCXVvDxTQtwc45PbP1s-163" source="ur3kafw1qKhpfOSSZFUt-4" target="ur3kafw1qKhpfOSSZFUt-36">
          <mxGeometry relative="1" as="geometry" />
        </mxCell>
        <mxCell id="itqwBwdQcHr9N_OGk8uq-20" style="edgeStyle=orthogonalEdgeStyle;rounded=0;orthogonalLoop=1;jettySize=auto;html=1;entryX=0.5;entryY=0;entryDx=0;entryDy=0;entryPerimeter=0;" edge="1" parent="FXCXVvDxTQtwc45PbP1s-163" source="itqwBwdQcHr9N_OGk8uq-19" target="ur3kafw1qKhpfOSSZFUt-27">
          <mxGeometry relative="1" as="geometry">
            <Array as="points">
              <mxPoint x="857" y="450" />
              <mxPoint x="162" y="450" />
            </Array>
          </mxGeometry>
        </mxCell>
        <mxCell id="itqwBwdQcHr9N_OGk8uq-14" style="edgeStyle=orthogonalEdgeStyle;rounded=0;orthogonalLoop=1;jettySize=auto;html=1;entryX=1;entryY=0.5;entryDx=0;entryDy=0;" edge="1" parent="1" source="ur3kafw1qKhpfOSSZFUt-2" target="FXCXVvDxTQtwc45PbP1s-94">
          <mxGeometry relative="1" as="geometry" />
        </mxCell>
        <mxCell id="FXCXVvDxTQtwc45PbP1s-115" value="Icons" style="" parent="0" />
        <mxCell id="FXCXVvDxTQtwc45PbP1s-93" value="User" style="aspect=fixed;perimeter=ellipsePerimeter;html=1;align=center;shadow=0;dashed=0;fontColor=#4277BB;labelBackgroundColor=#ffffff;fontSize=12;spacingTop=3;image;image=img/lib/ibm/users/user.svg;" vertex="1" parent="FXCXVvDxTQtwc45PbP1s-115">
          <mxGeometry x="160" y="330" width="60" height="60" as="geometry" />
        </mxCell>
        <mxCell id="FXCXVvDxTQtwc45PbP1s-94" value="Internet" style="aspect=fixed;perimeter=ellipsePerimeter;html=1;align=center;shadow=0;dashed=0;fontColor=#4277BB;labelBackgroundColor=#ffffff;fontSize=12;spacingTop=3;image;image=img/lib/ibm/vpc/Internet.svg;" vertex="1" parent="FXCXVvDxTQtwc45PbP1s-115">
          <mxGeometry x="160" y="464.75" width="60" height="60" as="geometry" />
        </mxCell>
      </root>
    </mxGraphModel>
  </diagram>
</mxfile>
